HIERARCHY
ROOT Hips
{
    OFFSET   0.000000   0.000000   0.000000
    CHANNELS 6 Xposition Yposition Zposition Zrotation Xrotation Yrotation
    JOINT Chest
    {
        OFFSET   0.000000   8.007230   0.000000
        CHANNELS 3 Zrotation Xrotation Yrotation
        JOINT Chest2
        {
            OFFSET   0.000000  22.077100   0.000000
            CHANNELS 3 Zrotation Xrotation Yrotation
            JOINT Neck
            {
                OFFSET   0.000000  23.254800   0.000000
                CHANNELS 3 Zrotation Xrotation Yrotation
                JOINT Head
                {
                    OFFSET   0.000010  14.370000   1.956600
                    CHANNELS 3 Zrotation Xrotation Yrotation
                    End Site
                    {
                        OFFSET   0.000000  19.566000   0.000000
                    }
                }
            }
            JOINT LeftCollar
            {
                OFFSET   3.911900  19.017000  -0.467062
                CHANNELS 3 Zrotation Xrotation Yrotation
                JOINT LeftShoulder
                {
                    OFFSET  10.383700   0.000000   0.000000
                    CHANNELS 3 Zrotation Xrotation Yrotation
                    JOINT LeftElbow
                    {
                        OFFSET  26.662100   0.001193   0.000835
                        CHANNELS 3 Zrotation Xrotation Yrotation
                        JOINT LeftWrist
                        {
                            OFFSET  28.869000  -0.000058  -0.000075
                            CHANNELS 3 Zrotation Xrotation Yrotation
                            JOINT LeftFinger0
                            {
                                OFFSET   2.044660  -2.323460   3.252850
                                CHANNELS 3 Zrotation Xrotation Yrotation
                                JOINT LeftFinger01
                                {
                                    OFFSET   3.088130   0.000000   0.000000
                                    CHANNELS 3 Zrotation Xrotation Yrotation
                                    JOINT LeftFinger02
                                    {
                                        OFFSET   2.639450   0.000000   0.000000
                                        CHANNELS 3 Zrotation Xrotation Yrotation
                                        End Site
                                        {
                                            OFFSET   2.582190   0.000000   0.000000
                                        }
                                    }
                                }
                            }
                            JOINT LeftFinger1
                            {
                                OFFSET   8.364480   0.000000   3.252850
                                CHANNELS 3 Zrotation Xrotation Yrotation
                                JOINT LeftFinger11
                                {
                                    OFFSET   4.646920   0.000000   0.000000
                                    CHANNELS 3 Zrotation Xrotation Yrotation
                                    JOINT LeftFinger12
                                    {
                                        OFFSET   2.323460   0.000000   0.000000
                                        CHANNELS 3 Zrotation Xrotation Yrotation
                                        End Site
                                        {
                                            OFFSET   2.273050   0.000000   0.000000
                                        }
                                    }
                                }
                            }
                            JOINT LeftFinger2
                            {
                                OFFSET   8.364490   0.000016   1.078090
                                CHANNELS 3 Zrotation Xrotation Yrotation
                                JOINT LeftFinger21
                                {
                                    OFFSET   5.111620   0.000000   0.000000
                                    CHANNELS 3 Zrotation Xrotation Yrotation
                                    JOINT LeftFinger22
                                    {
                                        OFFSET   2.788150   0.000012   0.000000
                                        CHANNELS 3 Zrotation Xrotation Yrotation
                                        End Site
                                        {
                                            OFFSET   2.727660   0.000000   0.000000
                                        }
                                    }
                                }
                            }
                            JOINT LeftFinger3
                            {
                                OFFSET   7.899780   0.000014  -1.078090
                                CHANNELS 3 Zrotation Xrotation Yrotation
                                JOINT LeftFinger31
                                {
                                    OFFSET   4.646930   0.000000   0.000000
                                    CHANNELS 3 Zrotation Xrotation Yrotation
                                    JOINT LeftFinger32
                                    {
                                        OFFSET   2.323470   0.000000   0.000000
                                        CHANNELS 3 Zrotation Xrotation Yrotation
                                        End Site
                                        {
                                            OFFSET   2.273050   0.000000   0.000000
                                        }
                                    }
                                }
                            }
                            JOINT LeftFinger4
                            {
                                OFFSET   7.435090   0.000000  -3.252850
                                CHANNELS 3 Zrotation Xrotation Yrotation
                                JOINT LeftFinger41
                                {
                                    OFFSET   3.717550   0.000000   0.000000
                                    CHANNELS 3 Zrotation Xrotation Yrotation
                                    JOINT LeftFinger42
                                    {
                                        OFFSET   1.858770   0.000000   0.000000
                                        CHANNELS 3 Zrotation Xrotation Yrotation
                                        End Site
                                        {
                                            OFFSET   1.818440   0.000000   0.000000
                                        }
                                    }
                                }
                            }
                        }
                    }
                }
            }
            JOINT RightCollar
            {
                OFFSET  -3.911900  19.017000  -0.467063
                CHANNELS 3 Zrotation Xrotation Yrotation
                JOINT RightShoulder
                {
                    OFFSET -10.383700   0.000023   0.000000
                    CHANNELS 3 Zrotation Xrotation Yrotation
                    JOINT RightElbow
                    {
                        OFFSET -26.662100   0.001246   0.001011
                        CHANNELS 3 Zrotation Xrotation Yrotation
                        JOINT RightWrist
                        {
                            OFFSET -28.869000  -0.000026  -0.000078
                            CHANNELS 3 Zrotation Xrotation Yrotation
                            JOINT RightFinger0
                            {
                                OFFSET  -2.044660  -2.323490   3.252850
                                CHANNELS 3 Zrotation Xrotation Yrotation
                                JOINT RightFinger01
                                {
                                    OFFSET  -3.088130   0.000000   0.000000
                                    CHANNELS 3 Zrotation Xrotation Yrotation
                                    JOINT RightFinger02
                                    {
                                        OFFSET  -2.639460   0.000000   0.000000
                                        CHANNELS 3 Zrotation Xrotation Yrotation
                                        End Site
                                        {
                                            OFFSET  -2.582190   0.000000   0.000000
                                        }
                                    }
                                }
                            }
                            JOINT RightFinger1
                            {
                                OFFSET  -8.364480   0.000000   3.252850
                                CHANNELS 3 Zrotation Xrotation Yrotation
                                JOINT RightFinger11
                                {
                                    OFFSET  -4.646920   0.000000   0.000000
                                    CHANNELS 3 Zrotation Xrotation Yrotation
                                    JOINT RightFinger12
                                    {
                                        OFFSET  -2.323470   0.000000   0.000000
                                        CHANNELS 3 Zrotation Xrotation Yrotation
                                        End Site
                                        {
                                            OFFSET  -2.273050   0.000000   0.000000
                                        }
                                    }
                                }
                            }
                            JOINT RightFinger2
                            {
                                OFFSET  -8.364480   0.000000   1.078090
                                CHANNELS 3 Zrotation Xrotation Yrotation
                                JOINT RightFinger21
                                {
                                    OFFSET  -5.111620   0.000000   0.000000
                                    CHANNELS 3 Zrotation Xrotation Yrotation
                                    JOINT RightFinger22
                                    {
                                        OFFSET  -2.788160   0.000000   0.000000
                                        CHANNELS 3 Zrotation Xrotation Yrotation
                                        End Site
                                        {
                                            OFFSET  -2.727660   0.000000   0.000000
                                        }
                                    }
                                }
                            }
                            JOINT RightFinger3
                            {
                                OFFSET  -7.899780   0.000000  -1.078090
                                CHANNELS 3 Zrotation Xrotation Yrotation
                                JOINT RightFinger31
                                {
                                    OFFSET  -4.646930   0.000000   0.000000
                                    CHANNELS 3 Zrotation Xrotation Yrotation
                                    JOINT RightFinger32
                                    {
                                        OFFSET  -2.323470   0.000000   0.000000
                                        CHANNELS 3 Zrotation Xrotation Yrotation
                                        End Site
                                        {
                                            OFFSET  -2.273050   0.000000   0.000000
                                        }
                                    }
                                }
                            }
                            JOINT RightFinger4
                            {
                                OFFSET  -7.435090   0.000000  -3.252850
                                CHANNELS 3 Zrotation Xrotation Yrotation
                                JOINT RightFinger41
                                {
                                    OFFSET  -3.717550   0.000000   0.000000
                                    CHANNELS 3 Zrotation Xrotation Yrotation
                                    JOINT RightFinger42
                                    {
                                        OFFSET  -1.858760   0.000000   0.000000
                                        CHANNELS 3 Zrotation Xrotation Yrotation
                                        End Site
                                        {
                                            OFFSET  -1.818440   0.000000   0.000000
                                        }
                                    }
                                }
                            }
                        }
                    }
                }
            }
        }
    }
    JOINT LeftHip
    {
        OFFSET   9.783010   0.000000   0.000000
        CHANNELS 3 Zrotation Xrotation Yrotation
        JOINT LeftKnee
        {
            OFFSET   0.000073 -41.789100   0.001749
            CHANNELS 3 Zrotation Xrotation Yrotation
            JOINT LeftAnkle
            {
                OFFSET   0.000111 -41.133200  -0.000179
                CHANNELS 3 Zrotation Xrotation Yrotation
                JOINT LeftToe
                {
                    OFFSET   0.000000  -6.358960  14.674500
                    CHANNELS 3 Zrotation Xrotation Yrotation
                    End Site
                    {
                        OFFSET   0.000000   0.000000   3.913200
                    }
                }
            }
        }
    }
    JOINT RightHip
    {
        OFFSET  -9.783010   0.000000   0.000000
        CHANNELS 3 Zrotation Xrotation Yrotation
        JOINT RightKnee
        {
            OFFSET   0.000424 -41.789200   0.005205
            CHANNELS 3 Zrotation Xrotation Yrotation
            JOINT RightAnkle
            {
                OFFSET   0.000000 -41.133200  -0.000155
                CHANNELS 3 Zrotation Xrotation Yrotation
                JOINT RightToe
                {
                    OFFSET   0.000000  -6.358960  14.674500
                    CHANNELS 3 Zrotation Xrotation Yrotation
                    End Site
                    {
                        OFFSET   0.000000   0.000000   3.913200
                    }
                }
            }
        }
    }
}
MOTION
Frames: 4
Frame Time:   0.016667
  0.107041  89.566900  -0.420150  -2.322010  -7.477010   0.091911   0.634221   4.145090  -0.730116   1.326730   8.281440  -1.512280   0.481692  -0.212107   0.009576   0.798293  -0.429706   3.465500  -5.555230   0.758641   1.890500 -70.784100   7.923850  -1.610400  -1.726800  -6.941050 -10.084000  11.500700   0.475733  -4.812840  37.525300  15.404400 -41.779900 -24.372400   0.000557   0.000301  -7.186200  -0.003546  -0.014471 -30.023500   7.695190 -13.045900 -25.285600   0.009701   0.000196 -17.699900  -0.006398  -0.000337 -27.275500  -1.094150   2.120960 -28.248700  -0.000538  -0.004312 -18.813600  -0.000476   0.002686 -27.966900  -1.119690   2.107630 -31.919000  -0.007074   0.004906 -21.258000   0.002681  -0.008309 -35.274700  -1.378770   1.948060 -52.947300   0.011851  -0.011097 -35.262800   0.010768   0.002912  10.079900   0.837722   3.382020  68.713400   0.447557  -3.384420   1.951060 -11.884800   5.267710 -10.414100   0.016298   2.111100 -39.040200  30.508000  64.694600  28.358300  -0.001604  -0.004234   9.179140   0.003273  -0.000234  29.103200   9.710330  16.856500  24.991700  -0.000212   0.012302  17.494200   0.005453   0.008159  27.609200   5.151420   9.736930  32.398400   0.000075   0.001041  21.577300   0.000231   0.005055  27.217500   3.428990   6.633290  28.801800  -0.004484   0.004797  19.182000   0.004531   0.009825  34.873400   0.268174   0.384825  52.311500   0.000548   0.003089  34.839400   0.011485   0.004764   3.706950   9.300170  -0.820910   1.245550   0.002295  15.682200  -2.941190  -2.165010  -1.390400   0.000000   0.000000   0.000000   2.210210   8.329270  -1.494820   0.146954   1.797920 -17.190000   0.528920  -3.344910   4.076670  -0.000000   0.000000  -0.000000
  0.106801  89.566900  -0.420258  -2.325170  -7.487180   0.091806   0.634197   4.144990  -0.726067   1.326380   8.281320  -1.504140   0.487992  -0.226361   0.009554   0.806036  -0.458838   3.428930  -5.559840   0.753839   1.907780 -70.777500   7.928390  -1.657200  -1.715810  -6.878410 -10.084500  11.499500   0.477060  -4.845220  37.546700  15.443600 -41.801400 -24.346000   0.000557   0.000312  -7.173030  -0.003550  -0.014470 -30.051900   7.638680 -12.938700 -25.294300   0.009693   0.000211 -17.706000  -0.006400  -0.000329 -27.285600  -1.119340   2.168790 -28.298400  -0.000539  -0.004306 -18.846700  -0.000477   0.002686 -27.969200  -1.145150   2.155300 -31.939400  -0.007076   0.004902 -21.271600   0.002682  -0.008311 -35.289700  -1.410510   1.991780 -52.971500   0.011876  -0.011119 -35.278900   0.010790   0.002912  10.084600   0.823610   3.382910  68.728700   0.430985  -3.379870   1.946690 -11.950100   5.218710 -10.429200   0.045574   2.075320 -39.046700  30.558600  64.766300  28.376000  -0.001610  -0.004233   9.187970   0.003276  -0.000229  29.088800   9.709020  16.863800  24.980300  -0.000213   0.012301  17.486200   0.005454   0.008157  27.606500   5.159110   9.752380  32.387100   0.000074   0.001029  21.569800   0.000230   0.005052  27.211000   3.439680   6.655630  28.776800  -0.004488   0.004786  19.165400   0.004530   0.009823  34.854200   0.272586   0.391422  52.282800   0.000542   0.003080  34.820300   0.011482   0.004767   3.708110   9.280940  -0.821121   1.245120   0.071506  15.680800  -2.951020  -2.199470  -1.393170  -0.000000   0.000000   0.000000   2.210940   8.336070  -1.491560   0.149769   1.805280 -17.195800   0.529069  -3.349760   4.076690   0.000000   0.000000   0.000000
  0.106561  89.566900  -0.420451  -2.331170  -7.506730   0.091703   0.635678   4.144900  -0.720505   1.328960   8.281210  -1.493090   0.496467  -0.251310   0.009514   0.815030  -0.509699   3.392360  -5.569980   0.737270   1.937670 -70.763700   7.961110  -1.750380  -1.699120  -6.783930 -10.084400  11.492300   0.486485  -4.884720  37.580300  15.511200 -41.836700 -24.307700   0.000557   0.000322  -7.153850  -0.003557  -0.014470 -30.083000   7.582090 -12.831600 -25.311900   0.009685   0.000252 -17.718300  -0.006404  -0.000311 -27.301500  -1.154280   2.234920 -28.376400  -0.000542  -0.004289 -18.898600  -0.000481   0.002686 -27.974100  -1.180440   2.221220 -31.979600  -0.007081   0.004894 -21.298400   0.002685  -0.008315 -35.316300  -1.454650   2.052130 -53.013600   0.011941  -0.011180 -35.307000   0.010847   0.002913  10.094300   0.789255   3.387070  68.743900   0.414420  -3.358020   1.932300 -12.016200   5.122030 -10.445500   0.109331   2.013000 -39.051400  30.636300  64.880400  28.410300  -0.001619  -0.004223   9.205130   0.003279  -0.000222  29.061800   9.705840  16.876400  24.958700  -0.000216   0.012298  17.471100   0.005460   0.008156  27.602700   5.170070   9.774670  32.366600   0.000072   0.000996  21.556100   0.000228   0.005046  27.199200   3.455660   6.689580  28.730800  -0.004496   0.004759  19.134800   0.004528   0.009817  34.819100   0.280659   0.403522  52.230300   0.000525   0.003057  34.785400   0.011473   0.004774   3.711850   9.261720  -0.821331   1.244690   0.140719  15.679500  -2.960920  -2.233930  -1.397900   0.000000   0.000000   0.000000   2.213580   8.350250  -1.485560   0.154431   1.817970 -17.207300   0.529506  -3.358630   4.076730  -0.000000   0.000000   0.000000
  0.106611  89.566800  -0.420681  -2.337710  -7.527420   0.091734   0.640304   4.149160  -0.718736   1.338180   8.289670  -1.489940   0.498566  -0.274362   0.009475   0.817550  -0.556412   3.392590  -5.583430   0.705703   1.963590 -70.748700   8.046860  -1.854210  -1.685750  -6.732860 -10.048700  11.475700   0.518575  -4.893060  37.602400  15.571600 -41.866400 -24.291700   0.000560   0.000312  -7.145870  -0.003568  -0.014481 -30.103800   7.594080 -12.841900 -25.333800   0.009689   0.000322 -17.733700  -0.006408  -0.000286 -27.314000  -1.168070   2.260320 -28.434900  -0.000548  -0.004259 -18.937700  -0.000488   0.002686 -27.980800  -1.194330   2.246560 -32.027700  -0.007089   0.004886 -21.330500   0.002689  -0.008321 -35.342700  -1.472500   2.074920 -53.054200   0.012044  -0.011276 -35.334000   0.010942   0.002913  10.105300   0.738380   3.395020  68.719600   0.453417  -3.312390   1.920170 -12.003900   5.012520 -10.445900   0.187229   1.960310 -39.042200  30.686500  64.966900  28.448100  -0.001622  -0.004192   9.224050   0.003273  -0.000219  29.034200   9.701330  16.887100  24.936300  -0.000224   0.012290  17.455400   0.005469   0.008156  27.601200   5.174250   9.783820  32.347900   0.000071   0.000944  21.543600   0.000224   0.005041  27.188000   3.464210   6.709140  28.683900  -0.004504   0.004717  19.103500   0.004522   0.009810  34.785000   0.288513   0.415346  52.179200   0.000498   0.003020  34.751300   0.011459   0.004783   3.719720   9.316910  -0.820867   1.242780   0.056409  15.680700  -2.949990  -2.196170  -1.402280   0.000000   0.000000  -0.000000   2.218880   8.367170  -1.479450   0.158200   1.828990 -17.220900   0.530279  -3.367550   4.078810  -0.000000   0.000000  -0.000000
